<mxfile host="app.diagrams.net" agent="Mozilla/5.0 (Windows NT 10.0; Win64; x64) AppleWebKit/537.36 (KHTML, like Gecko) Chrome/131.0.0.0 Safari/537.36" version="24.8.4">
  <diagram id="C5RBs43oDa-KdzZeNtuy" name="Page-1">
    <mxGraphModel dx="1518" dy="655" grid="1" gridSize="10" guides="1" tooltips="1" connect="1" arrows="1" fold="1" page="1" pageScale="1" pageWidth="827" pageHeight="1169" math="0" shadow="0">
      <root>
        <mxCell id="WIyWlLk6GJQsqaUBKTNV-0" />
        <mxCell id="WIyWlLk6GJQsqaUBKTNV-1" parent="WIyWlLk6GJQsqaUBKTNV-0" />
        <mxCell id="8c2F_9MwKJcloDivzRvu-9" style="edgeStyle=orthogonalEdgeStyle;rounded=0;orthogonalLoop=1;jettySize=auto;html=1;exitX=0.5;exitY=1;exitDx=0;exitDy=0;entryX=0.5;entryY=0;entryDx=0;entryDy=0;" edge="1" parent="WIyWlLk6GJQsqaUBKTNV-1" source="WIyWlLk6GJQsqaUBKTNV-3" target="8c2F_9MwKJcloDivzRvu-4">
          <mxGeometry relative="1" as="geometry" />
        </mxCell>
        <mxCell id="WIyWlLk6GJQsqaUBKTNV-3" value="Матрица, элементы которой симметричны относительно главной диагонали" style="rounded=1;whiteSpace=wrap;html=1;fontSize=12;glass=0;strokeWidth=1;shadow=0;" parent="WIyWlLk6GJQsqaUBKTNV-1" vertex="1">
          <mxGeometry x="115" y="80" width="210" height="40" as="geometry" />
        </mxCell>
        <mxCell id="8c2F_9MwKJcloDivzRvu-8" style="edgeStyle=orthogonalEdgeStyle;rounded=0;orthogonalLoop=1;jettySize=auto;html=1;" edge="1" parent="WIyWlLk6GJQsqaUBKTNV-1" source="8c2F_9MwKJcloDivzRvu-0" target="WIyWlLk6GJQsqaUBKTNV-3">
          <mxGeometry relative="1" as="geometry" />
        </mxCell>
        <mxCell id="8c2F_9MwKJcloDivzRvu-0" value="Начало" style="ellipse;whiteSpace=wrap;html=1;" vertex="1" parent="WIyWlLk6GJQsqaUBKTNV-1">
          <mxGeometry x="170" y="10" width="100" height="40" as="geometry" />
        </mxCell>
        <mxCell id="8c2F_9MwKJcloDivzRvu-11" value="" style="edgeStyle=orthogonalEdgeStyle;rounded=0;orthogonalLoop=1;jettySize=auto;html=1;" edge="1" parent="WIyWlLk6GJQsqaUBKTNV-1" source="8c2F_9MwKJcloDivzRvu-1" target="8c2F_9MwKJcloDivzRvu-2">
          <mxGeometry relative="1" as="geometry" />
        </mxCell>
        <mxCell id="8c2F_9MwKJcloDivzRvu-1" value="Поиск максимального по модулю элемента, не лежащего на главной диагонали (Pij)" style="rounded=1;whiteSpace=wrap;html=1;" vertex="1" parent="WIyWlLk6GJQsqaUBKTNV-1">
          <mxGeometry x="142.5" y="220" width="155" height="60" as="geometry" />
        </mxCell>
        <mxCell id="8c2F_9MwKJcloDivzRvu-13" value="" style="edgeStyle=orthogonalEdgeStyle;rounded=0;orthogonalLoop=1;jettySize=auto;html=1;" edge="1" parent="WIyWlLk6GJQsqaUBKTNV-1" source="8c2F_9MwKJcloDivzRvu-2" target="8c2F_9MwKJcloDivzRvu-5">
          <mxGeometry relative="1" as="geometry" />
        </mxCell>
        <mxCell id="8c2F_9MwKJcloDivzRvu-2" value="Составление матрицы вращения V: tg(phi)=2Aij/(Aii-Ajj)" style="rounded=1;whiteSpace=wrap;html=1;" vertex="1" parent="WIyWlLk6GJQsqaUBKTNV-1">
          <mxGeometry x="160" y="310" width="120" height="60" as="geometry" />
        </mxCell>
        <mxCell id="8c2F_9MwKJcloDivzRvu-3" value="A (i+1-ое)= V^T*A (i -ое)*V" style="rounded=1;whiteSpace=wrap;html=1;" vertex="1" parent="WIyWlLk6GJQsqaUBKTNV-1">
          <mxGeometry x="142.5" y="400" width="160" height="40" as="geometry" />
        </mxCell>
        <mxCell id="8c2F_9MwKJcloDivzRvu-10" value="" style="edgeStyle=orthogonalEdgeStyle;rounded=0;orthogonalLoop=1;jettySize=auto;html=1;" edge="1" parent="WIyWlLk6GJQsqaUBKTNV-1" source="8c2F_9MwKJcloDivzRvu-4" target="8c2F_9MwKJcloDivzRvu-1">
          <mxGeometry relative="1" as="geometry" />
        </mxCell>
        <mxCell id="8c2F_9MwKJcloDivzRvu-4" value="for i from 1 to infifnity" style="shape=trapezoid;perimeter=trapezoidPerimeter;whiteSpace=wrap;html=1;fixedSize=1;" vertex="1" parent="WIyWlLk6GJQsqaUBKTNV-1">
          <mxGeometry x="145" y="150" width="150" height="40" as="geometry" />
        </mxCell>
        <mxCell id="8c2F_9MwKJcloDivzRvu-15" value="Да" style="edgeStyle=orthogonalEdgeStyle;rounded=0;orthogonalLoop=1;jettySize=auto;html=1;entryX=0.5;entryY=0;entryDx=0;entryDy=0;" edge="1" parent="WIyWlLk6GJQsqaUBKTNV-1" source="8c2F_9MwKJcloDivzRvu-5" target="8c2F_9MwKJcloDivzRvu-6">
          <mxGeometry relative="1" as="geometry" />
        </mxCell>
        <mxCell id="8c2F_9MwKJcloDivzRvu-16" value="Нет" style="edgeStyle=orthogonalEdgeStyle;rounded=0;orthogonalLoop=1;jettySize=auto;html=1;exitX=0;exitY=0.5;exitDx=0;exitDy=0;entryX=0.5;entryY=0;entryDx=0;entryDy=0;" edge="1" parent="WIyWlLk6GJQsqaUBKTNV-1" source="8c2F_9MwKJcloDivzRvu-5" target="8c2F_9MwKJcloDivzRvu-4">
          <mxGeometry relative="1" as="geometry">
            <Array as="points">
              <mxPoint x="120" y="501" />
              <mxPoint x="120" y="130" />
              <mxPoint x="220" y="130" />
            </Array>
          </mxGeometry>
        </mxCell>
        <mxCell id="8c2F_9MwKJcloDivzRvu-5" value="if check(A, epsilon)" style="rhombus;whiteSpace=wrap;html=1;" vertex="1" parent="WIyWlLk6GJQsqaUBKTNV-1">
          <mxGeometry x="160" y="471" width="120" height="60" as="geometry" />
        </mxCell>
        <mxCell id="8c2F_9MwKJcloDivzRvu-6" value="Конец" style="ellipse;whiteSpace=wrap;html=1;" vertex="1" parent="WIyWlLk6GJQsqaUBKTNV-1">
          <mxGeometry x="290" y="531" width="110" height="50" as="geometry" />
        </mxCell>
      </root>
    </mxGraphModel>
  </diagram>
</mxfile>
